# xmcd
#
# Track frame offsets:
#	150
#	15825
#	32223
#	52189
#	65574
#	81285
#	96430
#	112804
#	121959
#	144576
#	155044
#	167417
#	178850
#	200654
#	216352
#	230822
#	241808
#	253975
#	263287
#	274045
#	294552
#	307937
#
# Disc length: 4399 seconds
#
# Revision: 0
# Processed by: cddbd v1.5.1PL0 Copyright (c) Steve Scherf et al.
# Submitted via: dBpowerAMP V4.0
#
DISCID=41112d16
DTITLE=Tim Butler - Tractor Race
DYEAR=2005
DGENRE=Blues
TTITLE0=Slow Ride
TTITLE1=Dreams of Erie
TTITLE2=Tuscon
TTITLE3=Swinga Palooza
TTITLE4=Comin Cross my Path
TTITLE5=Mr. Sarkosi - Jypsy
TTITLE6=Ride that Train
TTITLE7=Popcorn
TTITLE8=Between Trains
TTITLE9=Jethros Lament
TTITLE10=Hey Hey Hey
TTITLE11=Yeee Haa
TTITLE12=Castles of Ireland
TTITLE13=The Dancer
TTITLE14=Sitting on Top of the Hill
TTITLE15=Sedons Corner
TTITLE16=Can't Keep up with the Blues
TTITLE17=Tractor Race
TTITLE18=Gone Solong
TTITLE19=Visions of You
TTITLE20=Holy Water
TTITLE21=Ravi Revisited
EXTD=
EXTT0=
EXTT1=
EXTT2=
EXTT3=
EXTT4=
EXTT5=
EXTT6=
EXTT7=
EXTT8=
EXTT9=
EXTT10=
EXTT11=
EXTT12=
EXTT13=
EXTT14=
EXTT15=
EXTT16=
EXTT17=
EXTT18=
EXTT19=
EXTT20=
EXTT21=
PLAYORDER=
